<?xml version="1.0" standalone="no"?>
<!DOCTYPE svg PUBLIC "-//W3C//DTD SVG 1.1//EN" "http://www.w3.org/Graphics/SVG/1.1/DTD/svg11.dtd" >
<svg xmlns="http://www.w3.org/2000/svg" xmlns:xlink="http://www.w3.org/1999/xlink" version="1.1" viewBox="-10 0 563 1000">
   <path fill="currentColor"
d="M372 584q-14 0 -35 1h-35h-31q-18 -1 -34.5 -0.5t-23.5 0.5l-8 1q-7 1 -13 -2q-6 16 -10 26q-6 15 -21.5 48.5t-25.5 54.5q-10 19 -14 26q-3 8 -11 21l-7 12q-5 9 -16 12t-20.5 -2.5t-12.5 -16t3 -20.5l6 -12q7 -12 10 -18q4 -7 14 -27q9 -19 24 -51.5t21 -47.5t19 -47
q12 -32 26 -74.5t19 -59.5t13.5 -48.5t13.5 -51.5q5 -21 11 -42.5t8 -29.5q2 -9 7 -25q6 -18 13 -28q8 -12 23 -15.5t28 5.5q13 10 22 37q7 19 10 27t7 18t17.5 46.5t20.5 54.5q7 19 19.5 57.5t21 68t18.5 67t18 71.5q8 35 12.5 58t9 47.5t7.5 44.5q3 19 4 30l1 10
q1 11 -6.5 19.5t-18.5 9.5t-19.5 -6t-9.5 -18l-1 -10q-1 -9 -4 -27q-2 -19 -6.5 -43t-8.5 -47q-5 -22 -13 -55l-10 -44q-18 9 -32 -5zM212 531q9 -1 23 -1q19 0 39 1h27h34q25 -1 39 -1h14q-4 -18 -9 -34q-8 -28 -20.5 -66t-19 -55.5t-20.5 -54t-17.5 -46.5t-6.5 -18
q-1 -1 -2 -3q-2 9 -7 27q-6 21 -11 41q-5 21 -13.5 53t-13.5 49q-5 18 -20 62q-8 25 -16 46z" />
</svg>
