<?xml version="1.0" standalone="no"?>
<!DOCTYPE svg PUBLIC "-//W3C//DTD SVG 1.1//EN" "http://www.w3.org/Graphics/SVG/1.1/DTD/svg11.dtd" >
<svg xmlns="http://www.w3.org/2000/svg" xmlns:xlink="http://www.w3.org/1999/xlink" version="1.1" viewBox="-10 0 599 1000">
   <path fill="currentColor"
d="M89 793q-5 2 -11 1q-11 -1 -18.5 -9.5t-6.5 -19.5l2 -23q1 -23 1.5 -33.5t1.5 -37.5v-52q1 -25 2 -61.5t2 -55.5t3 -67t2 -66.5t-1 -54.5t-2 -57q-1 -23 -1 -41.5t1 -27.5q1 -15 12 -23.5t24 -10.5t21 -2q6 0 30 -1t36 -1q13 -1 44 0q34 0 62 5q27 6 41 11q15 5 45 23
t49 36q17 18 25 29t18 35q10 25 11.5 36.5t-0.5 30.5q-3 19 -10 34q-8 13 -22 28q-14 14 -35 27q-8 4 -16 9q25 4 43 11q23 9 43 25q23 17 35.5 38t15.5 39t-4 41q-6 22 -19 41t-37 40q-21 19 -32 28t-22 17q-13 9 -43.5 26t-56.5 27q-26 11 -40 15t-45 8.5t-44 4.5t-38 -4
t-34 -7q-9 -2 -21 -7q-6 -2 -11 -4zM118 459q9 -1 19 -2q18 -1 49 -4q31 -2 45 -3t29 -2h15l6 -2q12 -4 35.5 -13.5t38.5 -16.5t32 -17q15 -10 24 -19t13 -16q3 -5 4 -16q2 -11 1 -15q-1 -6 -8 -23q-8 -19 -12 -25q-5 -7 -20 -22q-13 -13 -38 -28t-35 -18q-10 -4 -34 -9
q-23 -4 -51 -4q-30 -1 -42 0q-12 0 -36 1t-31 1h-5v10q0 17 1 38q1 22 2 58q1 37 1 56.5t-2 68.5q0 11 -1 22zM283 502q-8 2 -18 5q-20 5 -46 11q-27 5 -40 6q-14 1 -39 -1q-16 -1 -25 -2q0 16 -1 38q-1 37 -2 61v52q-1 28 -1 38q-1 11 -2 32q4 2 10 4q11 4 17 6t27 6
q21 3 30 3t36.5 -4t37.5 -7q11 -3 35 -13q23 -9 50.5 -24.5t37.5 -22.5q11 -7 20 -15q10 -7 30 -26q19 -17 28 -30t12 -25q4 -12 2 -19q-1 -7 -8 -19t-21 -23q-15 -11 -31 -18q-16 -6 -42 -9q-19 -3 -42 -4h-23q-18 -1 -32 0z" />
</svg>
