<?xml version="1.0" standalone="no"?>
<!DOCTYPE svg PUBLIC "-//W3C//DTD SVG 1.1//EN" "http://www.w3.org/Graphics/SVG/1.1/DTD/svg11.dtd" >
<svg xmlns="http://www.w3.org/2000/svg" xmlns:xlink="http://www.w3.org/1999/xlink" version="1.1" viewBox="-10 0 590 1000">
   <path fill="currentColor"
d="M526 232.5q-4 10.5 -14 15t-21 0.5l-21 -8q-21 -8 -31 -11q-9 -3 -34 -9q-24 -5 -58 -6t-47 0q-12 2 -38 12q-24 9 -49 30q-27 22 -43 46q-17 24 -23.5 37.5t-19 55t-15.5 58.5q-3 18 -4.5 54.5t0.5 62.5q2 24 10 56q8 30 14 42t30 39q22 26 45 39t35 17q14 4 35 7
q21 4 48 3q29 0 51 -3q21 -3 31 -6q8 -3 15 -7l10 -5q9 -6 20 -3.5t17 12t3 20.5t-12 17l-10 6q-13 7 -28 12q-13 4 -39 7q-25 4 -57 4q-32 1 -58 -3q-25 -5 -41 -10q-18 -5 -47 -21q-30 -17 -59 -51q-28 -32 -37 -49t-18 -54q-10 -36 -12 -66q-2 -29 0 -68t5 -60t17 -66.5
t22 -62.5t28 -45q20 -30 52 -56q33 -27 65 -39q31 -12 49 -15t57 -1.5t67 8.5q28 5 40 9l33 12l21 9q11 3 15.5 13.5t0.5 21z" />
</svg>
