<?xml version="1.0" standalone="no"?>
<!DOCTYPE svg PUBLIC "-//W3C//DTD SVG 1.1//EN" "http://www.w3.org/Graphics/SVG/1.1/DTD/svg11.dtd" >
<svg xmlns="http://www.w3.org/2000/svg" xmlns:xlink="http://www.w3.org/1999/xlink" version="1.1" viewBox="-10 0 641 1000">
   <path fill="currentColor"
d="M58 239q-7 -9 -4.5 -20t11.5 -18l8 -5l3 -3q5 -6 12 -8q10 -9 28 -16t42 -11q22 -3 57 -3q35 1 51 4q16 2 57 11q42 9 76 21t50 20q17 8 46 31q31 24 47 47q16 21 22 34q6 14 11 47q4 30 4 45q0 14 -4 42q-3 29 -9 50t-16 48q-11 27 -17 41q-7 14 -24 43q-19 30 -29 41
l-20 20q-12 11 -36 27.5t-45.5 27t-49.5 18.5q-28 9 -43 12t-49 6q-35 3 -59 3q-24 -1 -39 -2q-16 -2 -30 -4q-14 -3 -23 -4l-9 -2q-11 -2 -17.5 -11.5t-4.5 -20.5q4 -16 20 -21q-1 -2 0 -4v-8q1 -7 1 -30t-1 -40q0 -17 -1.5 -69.5t-1.5 -104.5v-75q-1 -25 0 -75
q1 -48 1 -62q0 -5 -1 -12q-9 -2 -14 -10zM127 736q9 1 17 2q13 1 35 2q21 0 52 -3q32 -3 44.5 -5.5t37.5 -10.5q25 -7 42 -15.5t39 -22.5q20 -14 29 -22q9 -9 17 -18q7 -7 23 -32q16 -26 21 -37q5 -12 15 -38q10 -25 15 -43t8 -42q3 -25 3 -36t-4 -38q-4 -25 -7 -32
q-3 -8 -16 -25q-11 -16 -36 -35q-25 -20 -37 -26q-13 -6 -43.5 -17t-69.5 -19q-40 -9 -54 -11q-13 -2 -44 -3q-29 0 -48 2q-18 3 -29 8q-7 3 -12 5v2q1 18 2 33q0 15 -1 65q-1 49 0 73v76t1.5 103t1.5 69q1 18 1 42.5t-1 33.5l-1 7q0 4 -1 8z" />
</svg>
