<?xml version="1.0" standalone="no"?>
<!DOCTYPE svg PUBLIC "-//W3C//DTD SVG 1.1//EN" "http://www.w3.org/Graphics/SVG/1.1/DTD/svg11.dtd" >
<svg xmlns="http://www.w3.org/2000/svg" xmlns:xlink="http://www.w3.org/1999/xlink" version="1.1" viewBox="-10 0 591 1000">
   <path fill="currentColor"
d="M522 190q-2 11 -11 17.5t-20 5.5l-11 -2q-10 -2 -23 -2q-14 -1 -22 -2q-8 0 -34 -2l-39 -3t-43 -2q-30 0 -48 -1q-19 -1 -54 -4t-47 -4q-14 -1 -36 -2q-13 -1 -23 -1v2v20v38t-1 38.5t-1.5 28t-1.5 49.5v51v20q16 -1 23 -1q7 1 23 0h37h28q8 0 18 1l10 1q11 0 18.5 8.5
t6.5 20t-9.5 18.5t-19.5 7l-9 -1q-9 -1 -15 -1h-28h-36q-17 1 -24 0q-6 0 -22 1q0 12 1 22q0 21 0.5 35t2.5 40q1 26 2 42q1 15 3 31q2 15 3 21t4 17q2 9 4 13t7 8q2 3 9 4q12 3 18 3q7 1 30 4q24 2 35.5 2.5t37.5 1.5q27 0 41 0.5t47.5 1t58.5 1.5t34.5 1.5t21.5 0.5h21
l11 -1q11 0 19.5 7.5t9 18.5t-7.5 19.5t-19 8.5l-10 1h-24t-23 -0.5t-35 -1.5t-58 -2q-33 0 -47 -1h-41q-27 -1 -40 -1.5t-37 -3.5q-24 -2 -32 -3q-9 -1 -23 -4q-20 -5 -34 -17q-11 -10 -17 -21t-10 -27q-3 -14 -4 -21q-1 -6 -4 -23q-2 -18 -3 -35t-2 -42q-2 -27 -2.5 -41.5
t-1 -35.5t-1 -51t-0.5 -46v-52q1 -37 2 -51q0 -14 1 -29q1 -13 1 -35v-38v-21q0 -13 7 -29q13 -27 40 -27q10 1 33 2t36 2t48 4t52 4q18 1 48 2q30 0 44 1q13 1 40 3q26 2 33 2q9 1 23 2q15 1 27 3l11 1q11 2 18 11t5 20z" />
</svg>
