<?xml version="1.0" standalone="no"?>
<!DOCTYPE svg PUBLIC "-//W3C//DTD SVG 1.1//EN" "http://www.w3.org/Graphics/SVG/1.1/DTD/svg11.dtd" >
<svg xmlns="http://www.w3.org/2000/svg" xmlns:xlink="http://www.w3.org/1999/xlink" version="1.1" viewBox="-10 0 506 1000">
   <path fill="currentColor"
d="M225 450l-20 18q-28 27 -36.5 38t-21.5 35t-19 41.5t-9 38.5q-4 19 -2 32q1 7 9 16q11 12 16 15q7 4 30 10t53 9l31 3q18 1 24 19q5 -1 8 -2q11 -3 35 -16q24 -12 37 -24q12 -11 22 -30q9 -17 7 -37q-2 -22 -13 -39q-11 -20 -23 -32q-12 -13 -43 -38q-32 -26 -49 -37
q-12 -7 -36 -20zM218 386q4 -3 8 -7q26 -19 39 -28q11 -8 34 -31q20 -20 26 -35q5 -12 5 -19q-2 -6 -11 -20q-12 -17 -19 -21q-8 -5 -30 -12q-22 -6 -39 -4q-17 1 -41 11q-23 9 -46 30q-25 21 -29 28q-4 6 -6 20q-2 8 -2 13q6 7 19 19q23 19 36 27q14 8 56 29zM173 424
q-27 -14 -38 -20q-18 -11 -44 -34q-2 -1 -6.5 -5t-5.5 -5t-5 -4.5t-5 -5t-3.5 -4.5t-4 -5.5t-3 -5.5t-2.5 -6q-5 -15 0 -41q4 -24 13 -39q9 -13 39 -40t62 -39q31 -13 56 -15q27 -2 58 6q31 9 45 18q16 10 34 37q19 28 21 45q1 16 -9 43q-10 26 -38 54q-26 26 -40 36
q-9 7 -26 20q11 6 18 10q20 13 55 40q35 28 49 45q15 16 30 41q16 27 20 61q3 36 -13 67q-14 28 -34 45q-18 17 -48 32q-29 15 -45 20q-17 4 -52 6q-33 2 -54 0q-20 -1 -27 -2q-9 -1 -19 -3l-8 -2q-11 -3 -17 -12.5t-3 -19.5q0 -3 2 -6l-8 -4q-14 -7 -31 -26
q-20 -22 -23 -47q-2 -21 3 -48q4 -25 11.5 -46.5t22.5 -49t25.5 -42t41.5 -44.5q3 -2 6 -5z" />
</svg>
