<?xml version="1.0" standalone="no"?>
<!DOCTYPE svg PUBLIC "-//W3C//DTD SVG 1.1//EN" "http://www.w3.org/Graphics/SVG/1.1/DTD/svg11.dtd" >
<svg xmlns="http://www.w3.org/2000/svg" xmlns:xlink="http://www.w3.org/1999/xlink" version="1.1" viewBox="-10 0 485 1000">
   <path fill="currentColor"
d="M70 485v-4q0 -25 -1 -41q-1 -23 -5 -74.5t-5.5 -68t-2.5 -31.5q-2 -14 -3 -34q-1 -21 1 -33q4 -25 26 -32q7 -2 17 -5t19 -4q7 -1 33 -4q25 -2 38 -4q14 -2 52.5 -4.5t54.5 -3.5h42t46 2q15 1 30.5 13t6.5 35l-3 9q-4 10 -14.5 14.5t-20.5 1.5q-14 -6 -17 -20
q-13 -1 -28 -1h-41q-15 1 -52 3.5t-50 4.5q-13 1 -39 4q-25 3 -31 4q-5 0 -12 2q-2 1 -4 1v14q1 18 3 32q1 15 2 32q2 17 6 69t5 75q0 9 1 18q8 -1 23 -3q18 -2 29 -2h30h33q12 1 21 1h11q11 0 19 7.5t8 19t-8 19.5t-19 8h-11q-10 0 -23 -1h-30h-30q-9 0 -25 2t-25 3h-2
q2 41 2 69q1 29 1 47q1 18 1 50q1 32 0 58l-1 27q0 11 -8.5 18.5t-19.5 7.5t-18.5 -8.5t-7.5 -19.5l1 -26q1 -25 0 -56q0 -32 -1 -50q0 -18 -1 -47q0 -29 -2 -73v-17q-1 -2 -1 -4z" />
</svg>
