<?xml version="1.0" standalone="no"?>
<!DOCTYPE svg PUBLIC "-//W3C//DTD SVG 1.1//EN" "http://www.w3.org/Graphics/SVG/1.1/DTD/svg11.dtd" >
<svg xmlns="http://www.w3.org/2000/svg" xmlns:xlink="http://www.w3.org/1999/xlink" version="1.1" viewBox="-10 0 542 1000">
   <path fill="currentColor"
d="M446.5 220q-0.5 11 -9 18.5t-19.5 7.5l-14 -1q-15 0 -40 -2q-26 -1 -42 -2q-14 -1 -57 0t-57.5 2.5t-35.5 3.5q-19 2 -33 5q-1 4 -2 10q-2 12 -4 22q-2 8 -7 37q-5 28 -6 41q-2 14 -6 45q-5 31 -6 46q-1 2 -1 4q5 -1 11 -4q14 -5 35 -14q23 -9 50 -20q27 -10 50 -16
q23 -7 53 -8q33 -1 61 8q30 10 50 27q19 17 36 48q18 30 22.5 48.5t4.5 57.5q-1 39 -7 57q-7 16 -27 41t-54 50q-32 24 -46.5 32.5t-29.5 16.5q-17 7 -54 15q-38 7 -65 5q-28 -2 -42 -8q-16 -6 -41 -32q-23 -25 -29 -40q-7 -14 -12 -37t-6 -37q0 -19 7 -33q6 -10 17.5 -15.5
t21.5 -4.5l10 1q11 2 18 11t5 20q-1 9 -8 15.5t-16 7.5q1 8 4 23q4 18 8 26q3 7 20 26q14 15 21 19q7 3 26 4q20 2 50 -4q31 -6 42 -11q13 -6 25 -13.5t42 -29.5q28 -21 44 -41q15 -18 18 -27q3 -8 4 -38q0 -31 -3 -43t-16 -35q-14 -23 -26 -34q-11 -10 -30.5 -16.5
t-42.5 -5.5q-24 1 -41 6q-19 5 -44 15q-26 10 -49 19q-23 10 -37 15q-15 5 -23 7q-10 3 -23 2q-13 0 -22.5 -9t-12.5 -20q-4 -16 -2 -37q2 -16 6 -47q4 -30 6 -44q1 -14 7 -44q5 -30 7 -40q2 -8 4 -21q3 -14 6 -24q9 -22 38 -28q16 -3 38 -6q22 -2 37.5 -3t60.5 -3
q44 -1 61 0q16 1 42 2q25 2 39 2l14 1q11 0 19 8.5t7.5 19.5z" />
</svg>
