<?xml version="1.0" standalone="no"?>
<!DOCTYPE svg PUBLIC "-//W3C//DTD SVG 1.1//EN" "http://www.w3.org/Graphics/SVG/1.1/DTD/svg11.dtd" >
<svg xmlns="http://www.w3.org/2000/svg" xmlns:xlink="http://www.w3.org/1999/xlink" version="1.1" viewBox="-10 0 475 1000">
   <path fill="currentColor"
d="M412 558q1 11 -6.5 19.5t-18.5 9.5l-11 1q-12 1 -35 1q-14 0 -23 1q0 42 -1 76q-1 41 -1 48v7q0 11 -8 19t-19 8t-19 -8t-8 -19v-8q0 -7 1 -48q1 -32 1 -72q-22 2 -49 4q-34 3 -46 4q-13 2 -33 2q-21 0 -38 -2q-26 -4 -38 -21q-10 -17 -4 -50q4 -21 5 -31q2 -10 4 -38.5
t3 -55.5q1 -28 1 -66v-56q1 -16 1 -46q-1 -30 -1 -37v-7q0 -11 8 -19t19 -8t19 7.5t8 18.5v7q0 7 0.5 37.5t0 47.5t-0.5 55q0 39 -1 68q-1 28 -3.5 57.5t-3.5 40.5q-1 12 -6 36q0 3 -1 7q12 1 27 1q18 0 29 -2q12 -1 46 -4q29 -2 53 -4q-1 -34 -4 -67q-4 -49 -6.5 -74
t-10.5 -79.5t-13 -78.5l-4 -25q-3 -11 3.5 -20.5t17.5 -11.5t20.5 4.5t11.5 17.5l4 25q5 25 13.5 81t11 81.5t6.5 75.5q2 33 4 68q9 -1 24 -1q20 0 31 -1l11 -1q11 -1 19.5 6.5t9.5 18.5z" />
</svg>
