<?xml version="1.0" standalone="no"?>
<!DOCTYPE svg PUBLIC "-//W3C//DTD SVG 1.1//EN" "http://www.w3.org/Graphics/SVG/1.1/DTD/svg11.dtd" >
<svg xmlns="http://www.w3.org/2000/svg" xmlns:xlink="http://www.w3.org/1999/xlink" version="1.1" viewBox="-10 0 692 1000">
   <path fill="currentColor"
d="M553.5 359.5q-10.5 -3.5 -15.5 -14t-2 -20.5l1 -4q0 -3 -2 -8q-6 -14 -9 -20q-4 -6 -19 -20t-28 -23t-35 -17q-23 -8 -35.5 -10t-48.5 -2t-47 2q-13 3 -40 12q-26 9 -56 27q-28 17 -36 25q-9 9 -28 38t-29 55q-10 25 -14 54t-2 61q2 31 12 57q10 27 31 58q22 33 32 44
t35 34q24 20 58 39q34 18 61 27q25 8 58 8q31 1 53 -6q23 -7 40.5 -19t32.5 -31q16 -20 24 -40q10 -20 15 -38q5 -19 8 -42q3 -25 5 -45q1 -18 1 -29h-12q-18 1 -29 1q-10 0 -39 -1t-40 -1.5t-28 -1.5t-25 0h-9q-11 0 -19 -8t-8.5 -19t7.5 -19t19 -8h9q10 -1 28 0
q17 1 28 1.5t39.5 1.5t38.5 1t26 -1q17 0 29 -0.5t26 7.5t14 27v19q-1 12 -3 34q-1 22 -5 48q-3 27 -9 49t-17 46q-12 26 -32 51q-20 26 -44 42.5t-54 25.5q-31 10 -71 9q-40 0 -73 -11q-32 -10 -71 -31t-67 -46q-28 -24 -40 -37q-13 -15 -37 -51q-25 -37 -37 -69
q-12 -33 -15 -72q-3 -38 2 -73t18 -66q12 -31 34 -64.5t34 -46.5q13 -13 48 -33q34 -21 65 -32q30 -10 47 -14t58 -3q41 0 57 3q17 3 45 12q29 11 47 23q17 12 35.5 29.5t25.5 28.5q8 11 15 31q10 25 5 41l-3 7q-3 11 -13 16t-20.5 1.5z" />
</svg>
