<?xml version="1.0" standalone="no"?>
<!DOCTYPE svg PUBLIC "-//W3C//DTD SVG 1.1//EN" "http://www.w3.org/Graphics/SVG/1.1/DTD/svg11.dtd" >
<svg xmlns="http://www.w3.org/2000/svg" xmlns:xlink="http://www.w3.org/1999/xlink" version="1.1" viewBox="-10 0 616 1000">
   <path fill="currentColor"
d="M74 757.5q-11 -2.5 -17 -12t-3 -20.5l5 -25q6 -24 7 -37q1 -15 3 -52q1 -39 2 -74t3 -83q1 -49 1.5 -71.5t-1 -68t-2.5 -65.5l-2 -22q0 -11 7.5 -19.5t18.5 -9t19.5 6.5t8.5 18l2 22q1 22 2.5 68t1 70t-1.5 73h4q15 -2 36 -2.5t34 0t48 2.5q33 2 63 2q30 1 46 1
q15 0 46 -2q33 -1 42 -2q11 -1 26 -1v-3q0 -11 -2 -37q-1 -28 -2 -44q-1 -18 -3 -61t-1.5 -68t0.5 -33q2 -38 52 4l6 6q4 23 6 54q1 29 1 47q1 12 3 72q2 55 4 102t3.5 67t4.5 69q4 49 6 64q1 17 2 43q1 28 0 42l-1 13q-1 11 -9.5 18t-19.5 6.5t-18.5 -9.5t-6.5 -20l1 -12
q1 -11 0 -36t-2 -40q-2 -16 -5 -65q-4 -49 -6 -69q-1 -18 -3 -56h-12q-11 0 -19 1q-10 0 -44 2q-33 2 -49.5 2t-46.5 -1q-30 0 -65 -2q-34 -2 -46 -3q-12 0 -31 0.5t-33 1.5q-6 1 -11 1q-1 17 -1 29q-1 34 -2 74q-2 40 -3 55q-2 17 -8 44l-6 25q-2 11 -11.5 17t-20.5 3.5z
" />
</svg>
