<?xml version="1.0" standalone="no"?>
<!DOCTYPE svg PUBLIC "-//W3C//DTD SVG 1.1//EN" "http://www.w3.org/Graphics/SVG/1.1/DTD/svg11.dtd" >
<svg xmlns="http://www.w3.org/2000/svg" xmlns:xlink="http://www.w3.org/1999/xlink" version="1.1" viewBox="-10 0 372 1000">
   <path fill="currentColor"
d="M54 567.5q-3 -10.5 2.5 -20.5t16.5 -12l8 -3q10 -2 23 -3q13 -2 25 -1.5t32 2.5q18 2 28 3q9 2 18.5 2.5t22.5 1t21 0.5q7 0 18 -1l11 -1q11 -1 20 6t10 18t-6.5 20t-18.5 10l-12 1q-12 1 -21 1h-24q-14 -1 -25 -2t-21 -2t-28 -3q-16 -2 -25.5 -2.5t-19.5 0.5q-9 1 -14 3
l-8 2q-11 3 -20.5 -3t-12.5 -16.5z" />
</svg>
