<?xml version="1.0" standalone="no"?>
<!DOCTYPE svg PUBLIC "-//W3C//DTD SVG 1.1//EN" "http://www.w3.org/Graphics/SVG/1.1/DTD/svg11.dtd" >
<svg xmlns="http://www.w3.org/2000/svg" xmlns:xlink="http://www.w3.org/1999/xlink" version="1.1" viewBox="-10 0 191 1000">
   <path fill="currentColor"
d="M107 794.5q-11 2.5 -20.5 -3.5t-11.5 -17l-3 -10q-2 -11 -4 -26t-3.5 -45t-1.5 -51q-1 -20 -1 -56q-1 -35 -1 -88q-1 -53 -2 -79t-2 -49t-2 -52q-1 -28 -1.5 -53t-0.5 -31v-7q0 -11 8 -19.5t19 -8.5t19 8t8 19v7q0 6 0.5 31t1.5 52q1 28 2 52t2 50t2 79q0 51 1 89
q0 35 1 55q0 20 1 49q2 29 3 40q2 12 4 22l2 10q3 11 -3 20.5t-17 12z" />
</svg>
