<?xml version="1.0" standalone="no"?>
<!DOCTYPE svg PUBLIC "-//W3C//DTD SVG 1.1//EN" "http://www.w3.org/Graphics/SVG/1.1/DTD/svg11.dtd" >
<svg xmlns="http://www.w3.org/2000/svg" xmlns:xlink="http://www.w3.org/1999/xlink" version="1.1" viewBox="-10 0 607 1000">
   <path fill="currentColor"
d="M489 127q8 -5 17 -4h7q2 0 5 0.5t11 2t11 6t5 12t-7 20.5q-7 12 -14 15.5t-11 1.5l-4 -2q-14 1 -32 3q-17 1 -33 1q-16 1 -39 1q-7 0 -18 1v16q0 8 2 40q3 33 5 49q1 17 3 52q1 35 1 66t-2 66.5t-6 70.5t-7 51q-2 17 -11 52q-8 36 -13 50q-6 15 -24 42q-17 25 -27 35
t-27 21q-19 13 -30 17q-12 5 -37 8q-27 3 -39 0q-13 -3 -35.5 -19t-37.5 -38q-12 -20 -18 -32q-5 -12 -14.5 -39t-11.5 -37q-2 -9 -3 -20l-2 -11q-1 -11 5.5 -20t17.5 -10.5t20 5t11 17.5l1 11q2 10 3 17q2 7 10 31.5t12 33.5q4 8 15 25q8 13 22 23q12 8 17 10q6 1 21 -1
q18 -2 23 -4q6 -2 20 -11q14 -10 19 -15q6 -6 20 -27q15 -22 18 -31q4 -11 12 -43q8 -34 10 -48q2 -15 6 -49t6 -67.5t2 -63.5t-1 -64q-2 -34 -3 -49q-2 -17 -4 -50q-3 -34 -3 -45v-14q-10 1 -19 1q-18 1 -37 3q-19 1 -35 3q-16 1 -25 3q-8 1 -15 4l-11 4q-10 5 -20.5 0.5
t-14.5 -15t0.5 -21t14.5 -14.5l11 -4q13 -5 25 -7q11 -2 29 -4q17 -2 37 -3q20 -2 39 -3q17 -1 42 -1q26 -1 49 -2q23 0 38.5 -0.5t32.5 -1.5q8 -1 15 -1z" />
</svg>
