<?xml version="1.0" standalone="no"?>
<!DOCTYPE svg PUBLIC "-//W3C//DTD SVG 1.1//EN" "http://www.w3.org/Graphics/SVG/1.1/DTD/svg11.dtd" >
<svg xmlns="http://www.w3.org/2000/svg" xmlns:xlink="http://www.w3.org/1999/xlink" version="1.1" viewBox="-10 0 474 1000">
   <path fill="currentColor"
d="M72.5 810q-10.5 -3 -16 -13t-2.5 -20l4 -13q2 -9 3 -29q1 -23 1.5 -45.5t0.5 -55.5t-2 -71t-2 -58.5t-1 -72.5q-1 -51 -1 -90v-65.5v-55.5t1 -50q0 -21 1 -34l1 -12q1 -11 10 -18t20 -6.5t18 9.5t6 20l-1 12q-1 11 -1 31q-1 20 -1 48v55.5v64.5t1 87q8 -11 20 -27
q17 -22 35 -44t33 -40.5t35 -42.5q19 -23 36 -45t26 -36q8 -13 16 -27q-1 -2 -3 -5q-4 -11 1 -21t15 -14l10 -4q16 -6 31.5 9t8.5 32q-5 11 -15 28q-9 16 -19 31q-10 16 -28 39q-17 23 -37 48l-35 42t-33 40t-34 43q-3 3 -5 7q8 7 14.5 15.5t16.5 21.5q9 12 21 27
q12 16 19 25q5 8 21 27q15 19 38 49.5t32 44l25 37.5t29 44q11 19 16 25l5 6q6 9 4.5 20.5t-10.5 18t-20 5t-18 -10.5l-5 -7q-5 -7 -18 -28q-12 -20 -27.5 -43.5t-24.5 -36t-31.5 -42.5t-37.5 -49q-16 -20 -22 -28t-18 -23q-12 -16 -22 -29q-9 -13 -15 -21q-2 -3 -5 -5l-4 6
l-8 9q-5 5 -12 8q1 20 2 54q2 38 2 73q0 34 -0.5 57t-1.5 46q-1 26 -5 42l-4 13q-3 10 -13 15.5t-20.5 2.5z" />
</svg>
