<?xml version="1.0" standalone="no"?>
<!DOCTYPE svg PUBLIC "-//W3C//DTD SVG 1.1//EN" "http://www.w3.org/Graphics/SVG/1.1/DTD/svg11.dtd" >
<svg xmlns="http://www.w3.org/2000/svg" xmlns:xlink="http://www.w3.org/1999/xlink" version="1.1" viewBox="-10 0 421 1000">
   <path fill="currentColor"
d="M308 754q8 -2 15 -1l8 1l5 2.5t10 6t10.5 9.5t1.5 13.5t-12 16.5q-7 6 -12 8t-7 1.5t-4 -1.5l-2 -1q-12 0 -20 -1t-25 -3t-43 -3q-25 -1 -36 0h-31t-32 -1q-11 -1 -22 -1q-12 -1 -22 -3q-11 -1 -21.5 -12t-8.5 -26q1 -5 1 -12t1 -17q0 -10 -0.5 -47.5t-1.5 -61t-3 -66.5
q-3 -45 -3.5 -81.5t-0.5 -78.5l2 -82t3 -62q3 -24 8 -36l4 -8q5 -10 15.5 -14t20.5 1t13.5 15.5t-0.5 20.5l-4 8q-2 4 -3 18q-2 19 -3 59t-2 81q0 41 0.5 76.5t3 79t3.5 68t1 62.5q1 38 1 49q0 8 -1 15q13 0 23 1t28 1h30q12 -1 39 0q28 1 46 3q19 2 26 3h1z" />
</svg>
