<?xml version="1.0" standalone="no"?>
<!DOCTYPE svg PUBLIC "-//W3C//DTD SVG 1.1//EN" "http://www.w3.org/Graphics/SVG/1.1/DTD/svg11.dtd" >
<svg xmlns="http://www.w3.org/2000/svg" xmlns:xlink="http://www.w3.org/1999/xlink" version="1.1" viewBox="-10 0 536 1000">
   <path fill="currentColor"
d="M112 805q-11 1 -19.5 -6.5t-9.5 -18.5l-2 -19q-1 -20 -2 -32t-1 -42q-1 -31 -2 -82q0 -50 -1.5 -98.5t-4.5 -102t-5 -77.5q-2 -26 -6 -72q-4 -48 -5 -66l-0.5 -1.5t-0.5 -3v-4t1 -5.5t2 -5.5t4 -5.5t7 -6q20 -10 32 -3.5t17 20.5l5 13q19 34 33 71q13 35 20 57
q7 21 23 71q16 48 27 76q6 15 11 27q7 -17 17 -38q11 -22 23 -42q11 -19 26.5 -49t22.5 -45q7 -14 22 -50q14 -36 21 -58q7 -23 12 -37q0 -1 0.5 -5t1.5 -7t5 -7t11 -8q14 -6 23 -1.5t13 12.5l4 8q3 10 3 28v43t1 80.5t5 104.5q4 54 6 84.5t9 95.5t8.5 87.5t2.5 56.5t2 50
v15q0 11 -8 19t-19 8t-19 -8t-8 -19v-15q-1 -15 -2 -48t-2 -54.5t-8 -86.5t-10 -96q-2 -31 -6 -85t-5 -107v-9q-9 22 -15 33q-7 15 -23 46q-16 30 -27 50q-11 19 -22 41q-10 21 -17 37q-8 19 -17 35t-29.5 18t-32.5 -16q-9 -15 -14 -28q-5 -11 -16 -40q-12 -29 -28 -79
q-16 -49 -23 -71q-1 -2 -2.5 -5.5t-1.5 -5.5q2 25 5 79t4.5 103.5t1.5 100.5q1 51 2 80q0 29 1 41q0 11 2 30l2 19q1 11 -6.5 20t-18.5 10z" />
</svg>
