<?xml version="1.0" standalone="no"?>
<!DOCTYPE svg PUBLIC "-//W3C//DTD SVG 1.1//EN" "http://www.w3.org/Graphics/SVG/1.1/DTD/svg11.dtd" >
<svg xmlns="http://www.w3.org/2000/svg" xmlns:xlink="http://www.w3.org/1999/xlink" version="1.1" viewBox="-10 0 586 1000">
   <path fill="currentColor"
d="M133 802.5q-11 0.5 -19 -7t-8 -18.5l-1 -13q0 -11 -2 -35q-1 -23 -3 -56t-5 -62q-3 -30 -6.5 -74t-5.5 -68t-5 -58t-7.5 -74.5t-9.5 -72.5q-4 -33 -6 -50q-2 -18 -2 -26q-1 -21 12.5 -26t27.5 0l14 5q13 12 20 26q5 11 18 37t26 53q14 26 36 66q22 42 53 98t44 78
q12 21 37 60q25 38 52 73t35 45t22 24l12 12l4 -26q1 -15 2 -41t1 -42t1 -36q0 -18 -1 -71q0 -53 -1 -74.5t-4 -61.5q-4 -41 -6 -71q-3 -30 -5 -47q-1 -18 -5 -47q-3 -29 -4 -40q-2 -11 -5 -30l-2 -18q-2 -11 5 -20t18 -10t20 5.5t10 17.5l3 18q2 18 4 29q2 12 5 42t5 48
t5 47q2 30 5.5 71t4.5 64t1 76q1 54 1 73q-1 19 -1 36t-1 44t-3 42q-1 17 -4 32q-3 19 -13 34q-19 27 -45 17q-9 -4 -20 -12q-10 -7 -26 -23q-15 -16 -24 -27q-10 -11 -37 -47q-28 -37 -54 -77t-39 -62t-44 -79q-31 -56 -54 -98q-23 -41 -36 -68q-1 -1 -2 -4q1 13 3 27
q5 41 8 76t5 59q2 23 6 67q3 44 6 74q2 30 4.5 63.5t3.5 56.5q2 24 2 37l1 12q0 11 -8 19t-19 8.5z" />
</svg>
