<?xml version="1.0" standalone="no"?>
<!DOCTYPE svg PUBLIC "-//W3C//DTD SVG 1.1//EN" "http://www.w3.org/Graphics/SVG/1.1/DTD/svg11.dtd" >
<svg xmlns="http://www.w3.org/2000/svg" xmlns:xlink="http://www.w3.org/1999/xlink" version="1.1" viewBox="-10 0 421 1000">
   <path fill="currentColor"
d="M278 323q-4 -7 -7 -13q-8 -14 -35 -39q-25 -23 -34 -26t-29 -3q-19 0 -29 5q-12 6 -18 12q-5 5 -12 22q-7 16 -7 29q0 16 3 26q2 10 13 30t32 39q20 19 36 24q17 5 32 3q15 -1 30 -12q15 -10 19 -15q3 -6 7 -27t4 -27q-1 -5 -2 -11l-2 -9q-2 -4 -1 -8zM304 449
q-9 8 -21 16q-26 18 -54 21q-27 3 -54 -6q-28 -9 -57 -35q-27 -25 -42 -53q-15 -27 -18.5 -43t-4.5 -38q-1 -24 11 -52q12 -26 24 -38q11 -12 32 -22q21 -11 53 -11q29 -1 47 6q18 6 53 37q33 31 45 52q11 20 19 42q5 15 11 43q2 11 4 24q8 46 6.5 83t-13.5 82t-21 65
q-9 22 -35 60t-39 50t-36 28q-24 16 -41 22q-18 6 -39 6h-17q-11 0 -19 -8t-8 -19t8 -19t19 -8h16q13 0 22 -3q11 -4 29 -16q19 -13 28 -22t32.5 -42t30.5 -49q7 -17 17 -58q11 -40 12 -72q1 -11 0 -23z" />
</svg>
