<?xml version="1.0" standalone="no"?>
<!DOCTYPE svg PUBLIC "-//W3C//DTD SVG 1.1//EN" "http://www.w3.org/Graphics/SVG/1.1/DTD/svg11.dtd" >
<svg xmlns="http://www.w3.org/2000/svg" xmlns:xlink="http://www.w3.org/1999/xlink" version="1.1" viewBox="-10 0 743 1000">
   <path fill="currentColor"
d="M399 769q17 -4 41 -14q25 -11 37 -17q11 -5 40 -26q27 -19 45 -41q19 -23 26 -36q8 -13 21 -58q14 -46 16 -64q3 -19 1 -59q-3 -40 -8 -68q-6 -27 -21 -63t-25 -51q-10 -14 -46 -45q-34 -31 -66 -42q-34 -12 -51 -14q-18 -2 -62 4q-42 6 -54 11q-14 7 -29 16
q-15 8 -49 38q-33 29 -54 59t-28 46q-7 15 -17 60q-9 45 -9 62q0 19 7 59q7 39 17 64t29 54q21 29 33 42q11 12 46 36t47 28q13 5 38 11q23 6 41 6h22q6 0 12 2zM268 801q-19 -7 -60 -34q-40 -28 -55 -44q-14 -16 -37 -49q-23 -34 -35 -64q-12 -31 -20 -75q-7 -44 -8 -67
t10 -74t20 -71q10 -20 34 -54.5t63 -69.5q38 -33 57 -44q17 -10 34 -18q19 -9 69 -16q49 -6 74 -4q24 2 64 17q42 15 84 52q40 36 54 56q13 19 30.5 60t24.5 74q6 32 8 75q3 45 0 68q-3 24 -18 74t-26 69q-10 18 -31 43q-23 28 -56 51q-32 23 -47 30q-13 7 -40 19
q-28 12 -49 17t-45 6t-34 0q-11 -1 -33 -9l-19 -7q-8 -3 -13 -11z" />
</svg>
