<?xml version="1.0" standalone="no"?>
<!DOCTYPE svg PUBLIC "-//W3C//DTD SVG 1.1//EN" "http://www.w3.org/Graphics/SVG/1.1/DTD/svg11.dtd" >
<svg xmlns="http://www.w3.org/2000/svg" xmlns:xlink="http://www.w3.org/1999/xlink" version="1.1" viewBox="-10 0 308 1000">
   <path fill="currentColor"
d="M54.5 351q-3.5 -10 1 -20.5t15.5 -14.5l6 -2q4 -2 10 -6q7 -3 16 -12q10 -10 16 -17t20 -26t17 -25q5 -8 12 -20l0.5 -0.5t0.5 -1.5t1 -2.5l2 -3t2.5 -3t3.5 -3t4.5 -2.5t6.5 -1.5t8 -0.5q16 0 22.5 8t5.5 16l-1 7q0 8 -1 18q-2 9 -3 27t0 49q0 30 2 57q2 28 6 71
q3 44 5 67q1 22 3 62q3 40 5 64q1 24 2 50t1.5 35.5t0.5 17.5v21l1 12q0 11 -7.5 19.5t-19 8.5t-19.5 -7.5t-8 -18.5l-1 -13v-21v-18q-1 -9 -2 -34t-2 -49q-3 -33 -5 -64q-2 -40 -3 -62q-2 -22 -5 -65q-3 -44 -6 -72q-2 -28 -2 -61v-8q-4 5 -6 7q-8 9 -20 20q-13 14 -25 21
q-11 6 -19 10l-7 2q-10 4 -20.5 -1t-14 -15z" />
</svg>
