<?xml version="1.0" standalone="no"?>
<!DOCTYPE svg PUBLIC "-//W3C//DTD SVG 1.1//EN" "http://www.w3.org/Graphics/SVG/1.1/DTD/svg11.dtd" >
<svg xmlns="http://www.w3.org/2000/svg" xmlns:xlink="http://www.w3.org/1999/xlink" version="1.1" viewBox="-10 0 541 1000">
   <path fill="currentColor"
d="M117 475q7 1 15 1q18 3 29 4q10 1 39 0q29 0 52 -5q25 -4 36 -8t40 -16q27 -13 45 -24q17 -11 22 -17q5 -5 16 -23q10 -17 12 -32q3 -15 2 -26q-2 -12 -8 -31q-7 -18 -11 -25t-24 -22q-20 -16 -29 -19q-12 -4 -40 -10q-28 -7 -49 -10t-48 -4q-28 -1 -40 -1t-40 3
q-17 1 -27 2v7v29t1 47q1 34 2 67t4 83q1 16 1 30zM106 792.5q-11 0.5 -19 -7t-9 -18.5l-1 -14q0 -13 -2 -39t-3 -43.5t-3 -70.5q-2 -54 -3 -78q-14 -9 -13 -24q1 -12 11 -20q-1 -14 -2 -30q-3 -51 -4 -84l-2 -68t-1 -46.5v-30.5q0 -22 3 -31q6 -23 32 -28q10 -2 41 -4
q31 -3 45 -3q13 0 42 1q30 1 53.5 4.5t53.5 10.5q31 7 46 12q18 7 45 28t36 35q7 13 15.5 37t10.5 42q2 19 -2 42q-4 24 -18 49q-15 25 -25 35q-9 9 -30 23q-22 14 -53 28t-46 19q-14 4 -42 9q-27 6 -61 6q-32 1 -45 0q-12 -2 -31 -4q-2 0 -5 -1q1 25 3 68q2 54 3 70.5
t3 42.5q2 27 2 41l1 13q1 11 -7 19.5t-19 9z" />
</svg>
