<?xml version="1.0" standalone="no"?>
<!DOCTYPE svg PUBLIC "-//W3C//DTD SVG 1.1//EN" "http://www.w3.org/Graphics/SVG/1.1/DTD/svg11.dtd" >
<svg xmlns="http://www.w3.org/2000/svg" xmlns:xlink="http://www.w3.org/1999/xlink" version="1.1" viewBox="-10 0 741 1000">
   <path fill="currentColor"
d="M432 654.5q4 -10.5 14 -15t21 -0.5l8 3q11 5 33 20q14 10 29 21q5 -6 10 -13q15 -22 29 -60q13 -39 15 -56q2 -19 2 -57q1 -37 -9 -81q-9 -45 -15 -62q-6 -16 -24 -45q-18 -28 -34 -44q-17 -16 -43 -31t-53 -22q-28 -7 -63 -5q-37 3 -50 7t-42 17q-27 14 -56 40
q-31 27 -41 39q-9 11 -28 45q-18 33 -24 62q-5 31 -4 45t15 55q15 41 37 77.5t50.5 65t69.5 53.5q40 24 70 30q19 4 41 4q21 0 43 -5q24 -4 35 -9q7 -2 26 -15q-9 -6 -17 -12q-16 -11 -21 -13l-9 -4q-10 -4 -14.5 -14t-0.5 -20.5zM484 785q-7 10 -20 11l-41 4q-17 1 -33 1
h-34q-6 -1 -18 -2l-11 -1q-12 -1 -19 -11q-27 -10 -57 -28q-46 -28 -79 -61.5t-59 -75.5q-25 -41 -42 -88q-16 -47 -18 -67q-1 -21 5 -59q7 -38 30 -79q21 -38 34 -54t46 -45q35 -30 68 -47q33 -16 51 -21q18 -6 61 -9q44 -3 80 6q35 9 67 28q33 19 53.5 39t42.5 54
q20 34 28 55q8 22 18 70q11 50 10 92q0 41 -2 63q-3 23 -18 68q-16 45 -36 74q-5 7 -11 14q8 6 16 13q27 21 36.5 29t23.5 19l13 12q9 7 9.5 18.5t-6.5 20t-18 9t-20 -6.5l-13 -11q-14 -12 -23 -19.5t-36 -28.5q-12 -10 -23 -18q-1 1 -3 2q-32 23 -52 30z" />
</svg>
