<?xml version="1.0" standalone="no"?>
<!DOCTYPE svg PUBLIC "-//W3C//DTD SVG 1.1//EN" "http://www.w3.org/Graphics/SVG/1.1/DTD/svg11.dtd" >
<svg xmlns="http://www.w3.org/2000/svg" xmlns:xlink="http://www.w3.org/1999/xlink" version="1.1" viewBox="-10 0 591 1000">
   <path fill="currentColor"
d="M53 200q-1 -10 5.5 -19.5t17.5 -11.5l16 -2q15 -3 22 -5q11 -4 48 -11t57 -7q21 -1 71 9t72 19q21 9 56 33q36 24 51 40t36 51q24 40 24 67q-1 28 -11 43q-9 13 -44 36q-33 21 -70 33q-21 7 -47 14q4 9 16 35q14 31 22 47q9 17 24.5 49t30 66t18.5 44t8 25l5 14
q4 10 -1 20t-15.5 13.5t-21 -1.5t-13.5 -15l-5 -14q-4 -14 -7.5 -23t-17.5 -41.5t-29.5 -64t-23.5 -47.5q-9 -17 -23.5 -49.5t-17.5 -40.5q-1 -2 -2 -5q-33 7 -49 10q-18 3 -50 8q-33 6 -47 8q-7 1 -16 2q2 19 2 31q2 31 5 95q3 65 2 82q0 20 -6 39l-4 16q-3 11 -13 16.5
t-20.5 2.5t-16 -13t-2.5 -21l4 -16q4 -12 4 -25q1 -16 -2 -79q-3 -64 -5 -94q0 -13 -2 -36q-11 -7 -12 -20t9 -22q-1 -15 -2 -33q-6 -80 -11 -133t-6 -78v-22q-11 -7 -13 -19zM138 475q7 0 13 -1l42 -7q35 -7 53 -10q18 -2 64 -13q45 -10 77 -20q31 -10 58 -28
q22 -14 28 -20q2 -5 2 -14q0 -12 -16 -38q-18 -30 -29 -41.5t-42 -32.5t-48 -28q-16 -7 -60.5 -15.5t-58.5 -8.5q-16 0 -49 7q-34 6 -42 8q-4 2 -10 3v23q1 24 6 75q5 53 11 134q1 15 1 27z" />
</svg>
