<?xml version="1.0" standalone="no"?>
<!DOCTYPE svg PUBLIC "-//W3C//DTD SVG 1.1//EN" "http://www.w3.org/Graphics/SVG/1.1/DTD/svg11.dtd" >
<svg xmlns="http://www.w3.org/2000/svg" xmlns:xlink="http://www.w3.org/1999/xlink" version="1.1" viewBox="-10 0 570 1000">
   <path fill="currentColor"
d="M469.5 285.5q-8.5 7.5 -19.5 6.5t-18 -9l-14 -15q-10 -11 -23 -18q-16 -9 -22 -13q-7 -4 -28 -15q-20 -11 -30 -15q-8 -3 -37 -8q-28 -4 -40 -4q-12 1 -38 6.5t-36 10.5q-9 4 -30 24q-20 20 -23 27q-3 8 -4 36q-1 26 6 46q6 19 23 40q18 21 28.5 28.5t48.5 21.5
q39 14 55 17q18 3 53 10q37 7 76 21q41 14 56 24q17 12 35 43q18 30 19 49q1 18 -10 45t-42 55q-28 26 -44 36t-51 23q-36 14 -76 19q-41 6 -73 1q-31 -4 -46.5 -10t-43.5 -26q-26 -19 -40 -32q-15 -16 -20 -29l-3 -8q-4 -10 0 -20.5t14.5 -14.5t21 0.5t14.5 14.5l3 8
q2 4 9 11q10 10 32 26q23 16 32 19.5t35 7.5q24 3 58 -1.5t64 -15.5q30 -12 42 -19q11 -7 36 -30q22 -19 28 -35q6 -15 6 -22q-1 -7 -12 -25q-12 -20 -19 -25q-9 -6 -43 -18q-35 -13 -68 -19q-35 -7 -53 -10q-20 -3 -64 -19t-60.5 -28t-39.5 -39q-23 -29 -32.5 -57t-8.5 -65
t8 -54q8 -18 36 -46q27 -26 44 -34q16 -7 47 -14q30 -7 47 -8q18 0 52 5q35 5 48 11q13 5 36 17q22 12 28.5 16t22.5 13q21 12 37 29l13 15q7 8 6.5 19.5t-9 19z" />
</svg>
