<?xml version="1.0" standalone="no"?>
<!DOCTYPE svg PUBLIC "-//W3C//DTD SVG 1.1//EN" "http://www.w3.org/Graphics/SVG/1.1/DTD/svg11.dtd" >
<svg xmlns="http://www.w3.org/2000/svg" xmlns:xlink="http://www.w3.org/1999/xlink" version="1.1" viewBox="-10 0 572 1000">
   <path fill="currentColor"
d="M230 517.5q0 -11.5 8 -19.5t19 -8h22q20 0 28 -1q7 0 20 -1l4 -14q21 -58 39 -104t31 -75q12 -29 26 -60q7 -16 13 -28l-24 6q-28 9 -70 20t-62 14t-55 6q-35 2 -71 3q-37 0 -49 -1q-8 -1 -19 -2h-12q-11 -1 -18.5 -9.5t-6.5 -19.5t9.5 -18.5t19.5 -6.5l11 1q12 0 22 1
q8 1 42 1q35 -1 68 -3q33 -3 51 -5q17 -3 57 -14q41 -10 68 -18q28 -9 54 -15q5 -1 14.5 -0.5t21.5 4t16.5 13.5t-1.5 27q-7 15 -11.5 25.5t-18 40.5t-26 58.5t-30.5 74.5q-17 42 -35 95q9 0 20 1q22 1 37 9l9 6q9 5 12 16t-2.5 20.5t-16.5 12.5t-21 -3l-9 -5q-3 -2 -11 -2
q-15 -1 -28 0h-9q-6 19 -9 28q-6 21 -15.5 57.5t-12.5 51.5q-4 14 -9 40q-6 27 -7 35l-1 9q-1 11 -10 18t-20 6t-18 -10t-5 -20l1 -9q1 -11 7 -39q5 -28 9 -43t13.5 -52t15.5 -58q1 -5 3 -11q-10 1 -29 1h-21q-11 0 -19.5 -7.5t-8.5 -19z" />
</svg>
