<?xml version="1.0" standalone="no"?>
<!DOCTYPE svg PUBLIC "-//W3C//DTD SVG 1.1//EN" "http://www.w3.org/Graphics/SVG/1.1/DTD/svg11.dtd" >
<svg xmlns="http://www.w3.org/2000/svg" xmlns:xlink="http://www.w3.org/1999/xlink" version="1.1" viewBox="-10 0 433 1000">
   <path fill="currentColor"
d="M111 615q0 3 1 7q3 25 5 39q2 7 3 11q4 10 24 35q19 24 38 32q18 9 45 6q27 -2 45 -16q22 -16 28 -25q6 -8 12 -37q6 -28 4 -38q-3 -10 -20 -37q-16 -27 -24 -32q-9 -6 -33 -15q-21 -8 -45 -4q-26 5 -33 10q-9 6 -25 24q-10 10 -16 19q-3 6 -5 10.5t-4 10.5zM82 714
q-7 -4 -10 -11l-6 -11q-9 -14 -11 -26q-3 -12 -1 -37q1 -9 2 -17q-3 -32 -3 -51q0 -23 6.5 -77.5t12.5 -78.5q6 -25 24.5 -66.5t35.5 -66.5q17 -27 39 -49q21 -20 32 -29q11 -8 27 -16l15 -8q10 -6 21 -2.5t16 13t1.5 20.5t-12.5 16l-15 8q-13 7 -21 13t-26 24t-32 39
q-14 22 -30.5 59.5t-22.5 57.5q-5 21 -11 72q-2 19 -4 34q12 -11 21 -18q16 -11 54 -18q40 -7 74 6q30 12 45 22q16 11 39 47q21 34 26 54q5 22 -3 61q-9 40 -21 57q-11 16 -39 37q-31 23 -73 27q-42 3 -72.5 -10.5t-57.5 -47.5q-12 -15 -20 -27z" />
</svg>
