<?xml version="1.0" standalone="no"?>
<!DOCTYPE svg PUBLIC "-//W3C//DTD SVG 1.1//EN" "http://www.w3.org/Graphics/SVG/1.1/DTD/svg11.dtd" >
<svg xmlns="http://www.w3.org/2000/svg" xmlns:xlink="http://www.w3.org/1999/xlink" version="1.1" viewBox="-10 0 625 1000">
   <path fill="currentColor"
d="M53 200.5q0 -11.5 8 -19.5t19 -8h11q11 0 31 -1q21 -2 29 -2q8 -1 28 -1q21 -1 52 0q31 0 45 1h5q6 -16 23 -17q20 -1 27 18q23 0 50 -1q35 -2 48.5 -3.5t25 -3t32.5 -4.5l33 -6l12 -2q10 -1 19.5 5.5t11 17.5t-5 20t-17.5 11l-11 1l-33 6t-34.5 5.5t-27 3t-51.5 3.5
q-26 1 -48 1q2 18 2 32q1 18 5 66q3 48 8 114q4 66 6 89.5t5.5 65.5t7.5 82q5 40 6 51q1 13 0 28l-1 13q0 11 -8.5 18.5t-19.5 7t-18.5 -9t-7.5 -19.5l1 -13q1 -11 0 -20q-1 -11 -5 -51t-8 -82t-6 -66t-6 -91q-5 -65 -8 -111q-3 -50 -5 -69q0 -15 -2 -36h-7q-13 -1 -44 -1
q-30 -1 -49 0q-19 0 -27 1q-8 0 -29 2q-21 1 -33 1h-12q-11 0 -19 -7.5t-8 -19z" />
</svg>
