<?xml version="1.0" standalone="no"?>
<!DOCTYPE svg PUBLIC "-//W3C//DTD SVG 1.1//EN" "http://www.w3.org/Graphics/SVG/1.1/DTD/svg11.dtd" >
<svg xmlns="http://www.w3.org/2000/svg" xmlns:xlink="http://www.w3.org/1999/xlink" version="1.1" viewBox="-10 0 522 1000">
   <path fill="currentColor"
d="M100 353q-8 -7 -8.5 -18.5t7.5 -19.5l11 -13q12 -13 34 -37q24 -26 50 -43t44 -20q19 -4 59 9q38 13 55 29q16 15 34 58q18 41 20 72q3 32 -8 62q-7 21 -15 33q9 5 16 11q13 11 30 39t24 53q8 25 6 56q-2 32 -10 48q-8 15 -31 39q-23 23 -64 41q-40 18 -62 21
q-23 2 -71 -11q-47 -13 -66 -25q-16 -10 -41 -28q-26 -18 -35 -26q-12 -12 -19 -29l-5 -12q-4 -11 0 -21.5t14.5 -14.5t21 0.5t14.5 14.5l5 12q3 7 6 10q6 6 29 22q24 17 39 26q12 8 51 19q39 10 51 9q13 -1 46 -16q31 -14 48 -31t20 -24q4 -7 5 -27q1 -22 -3 -39
q-5 -17 -19 -39q-13 -21 -20 -27q-5 -4 -26 -10q-6 -2 -12 -3q-19 7 -31 7q-21 0 -21 -14.5t10 -28.5l10 -15q11 -3 23 -3q10 -4 16 -8q3 -1 4 -3q4 -5 11 -24q7 -20 6 -40q-2 -22 -16 -55q-14 -32 -22 -40q-9 -8 -35 -17q-24 -8 -32 -7q-8 2 -25 13q-19 12 -39 34
q-22 24 -34 37l-12 12q-7 8 -18.5 8.5t-19.5 -6.5z" />
</svg>
