<?xml version="1.0" standalone="no"?>
<!DOCTYPE svg PUBLIC "-//W3C//DTD SVG 1.1//EN" "http://www.w3.org/Graphics/SVG/1.1/DTD/svg11.dtd" >
<svg xmlns="http://www.w3.org/2000/svg" xmlns:xlink="http://www.w3.org/1999/xlink" version="1.1" viewBox="-10 0 569 1000">
   <path fill="currentColor"
d="M118.5 375.5q-9.5 -5.5 -12.5 -16t2 -20.5l8 -16q8 -15 14 -24q6 -11 26 -33q21 -24 43 -41t35 -24q13 -8 45 -18q34 -11 61 -7q28 4 55 25q26 21 35 37q7 14 16 46q8 33 7 63q-1 29 -12 67q-11 41 -41 78q-28 34 -57 60q-28 26 -58 49q-27 22 -59 49t-42.5 36.5
t-27.5 26.5q-17 18 -26 28l-1 2h17q12 -1 25 -2t54 -6q42 -6 59 -9q19 -3 37 -6q19 -2 60 -4.5t54 -2.5q14 0 31 2l16 2q11 1 18.5 10t6 19.5t-10 18t-19.5 6.5l-16 -2q-15 -2 -26 -2q-12 0 -51 2.5t-56 4.5t-34 5q-19 3 -61 9q-43 6 -58 7q-14 1 -26 2h-34t-31 -1
q-13 -1 -24.5 -15.5t-2.5 -31.5q4 -8 13 -20q8 -10 18 -22t29 -31q18 -19 29.5 -29.5t44 -38t61.5 -49.5q28 -22 55 -47q26 -24 51 -55q23 -28 31 -58q10 -32 10 -54q1 -22 -5.5 -47.5t-11.5 -33.5q-3 -7 -20 -20q-16 -13 -29 -14q-15 -2 -38 5q-26 8 -35 13t-28 20
q-18 14 -35.5 33.5t-20.5 25.5q-4 7 -12 22l-9 15q-5 10 -16 13.5t-20.5 -2z" />
</svg>
