<?xml version="1.0" standalone="no"?>
<!DOCTYPE svg PUBLIC "-//W3C//DTD SVG 1.1//EN" "http://www.w3.org/Graphics/SVG/1.1/DTD/svg11.dtd" >
<svg xmlns="http://www.w3.org/2000/svg" xmlns:xlink="http://www.w3.org/1999/xlink" version="1.1" viewBox="-10 0 588 1000">
   <path fill="currentColor"
d="M76 153.5q10 -4.5 20.5 0t15.5 14.5l3 6q6 14 0 41q-3 16 -6 53q-3 38 -2 79q2 40 11 99q10 60 15.5 82t20.5 65q14 42 26 65q12 24 31 52q18 25 37 39t33 19q15 4 23 4q9 0 30 -7q21 -8 36 -18q16 -12 35 -33q19 -22 26.5 -34t13.5 -27q7 -16 16 -64q9 -50 10 -72
q1 -23 -2 -72t-7 -84q-4 -36 -10 -78q-6 -41 -9 -57q-3 -15 -8 -30q-4 -14 -7 -21l-4 -8q-5 -10 -1.5 -21t13.5 -15.5t20.5 -1t15.5 13.5l5 9q5 11 10 29q5 17 9 34q3 17 9 60t11 79q4 37 7 88t2 77t-11 80q-11 55 -19 74t-18 35q-10 17 -32 42q-23 25 -43 40q-22 16 -51 26
t-46 10t-39 -7q-24 -6 -50 -27q-27 -19 -49 -52q-21 -30 -35 -57t-29 -73q-16 -45 -22 -69t-16 -86q-10 -63 -12 -107q-1 -43 2 -84t7 -61q2 -6 2 -10l-2 -3q-4 -10 0 -21t14 -15.5z" />
</svg>
