<?xml version="1.0" standalone="no"?>
<!DOCTYPE svg PUBLIC "-//W3C//DTD SVG 1.1//EN" "http://www.w3.org/Graphics/SVG/1.1/DTD/svg11.dtd" >
<svg xmlns="http://www.w3.org/2000/svg" xmlns:xlink="http://www.w3.org/1999/xlink" version="1.1" viewBox="-10 0 912 1000">
   <path fill="currentColor"
d="M678 544q14 -47 20 -69q7 -23 24 -78t30 -93t19 -53q5 -14 14 -39q8 -24 9 -29l2 -7q2 -11 11.5 -17t20.5 -3.5t17 12t4 20.5l-2 7q-2 8 -11 34t-14 41q-6 15 -19 52t-29 91q-17 55 -24 77t-20 69q-12 43 -25 87t-16 57q-3 14 -10 41q-6 29 -11 43q-4 13 -16.5 23.5
t-30.5 4.5q-19 -6 -34 -35q-10 -21 -24 -57q-14 -34 -36 -90t-38 -109q-17 -53 -32 -107q-16 -54 -20 -71q-2 -8 -4 -19q-5 21 -8 33q-5 19 -17 62q-11 41 -24 94.5t-17 70.5t-9 48t-7 50q-3 20 -8 44q-1 3 -3 7.5t-8 14t-12.5 14.5t-16 3.5t-19.5 -14.5q-8 -11 -13 -23
q-4 -10 -15 -40t-31 -82.5t-38 -97.5t-27 -71q-9 -25 -28 -76q-19 -52 -31 -83q-11 -30 -27 -53l-17 -25q-6 -10 -3.5 -21t11.5 -17t20 -3.5t17 11.5l17 25q19 29 32 63q13 32 32 83.5t28 77.5q8 25 26 69q18 46 38 98q15 39 25 67q2 -14 5 -30q5 -32 10 -51q4 -17 17 -71
t24 -96q12 -43 16 -61q5 -19 14 -57q10 -37 14 -49q3 -12 9 -24q7 -15 16 -18t17 2.5t14.5 13.5t10.5 15l4 8q6 26 11 54q4 26 8 42t19 68q15 54 31 106q16 51 38 106q21 55 35 90q7 18 13 32q0 -3 1 -4q6 -28 10 -41q3 -15 16 -60q13 -44 25 -87z" />
</svg>
