<?xml version="1.0" standalone="no"?>
<!DOCTYPE svg PUBLIC "-//W3C//DTD SVG 1.1//EN" "http://www.w3.org/Graphics/SVG/1.1/DTD/svg11.dtd" >
<svg xmlns="http://www.w3.org/2000/svg" xmlns:xlink="http://www.w3.org/1999/xlink" version="1.1" viewBox="-10 0 550 1000">
   <path fill="currentColor"
d="M58.5 219.5q3.5 -10.5 13.5 -15.5t20 -1l7 2q5 2 9.5 4.5t8 7t5 7t5.5 9t4 7.5q12 21 29 50q16 28 33 53t45 66q4 6 9 12q20 -36 31 -54q13 -21 41 -62q28 -42 45 -66t30 -42q11 -16 13 -21l4 -8q5 -10 15.5 -13.5t20.5 1t14 15.5t-1 21l-4 7q-4 10 -18 29q-13 18 -29 42
q-17 24 -45 65t-40 60.5t-36 63.5q-3 5 -6 12q11 15 23 31q39 53 70 96q31 44 44 64.5t34 57.5q20 36 27 49l5 12q5 10 1 21t-14 15.5t-20.5 0.5t-15.5 -14l-5 -12q-5 -11 -25 -46l-33 -55q-12 -19 -42 -61q-30 -43 -70 -96q-3 -5 -6 -9q-8 17 -17 36q-26 60 -35 82
q-10 22 -33 69q-22 48 -37 72q-14 26 -24 37l-9 10q-7 8 -18 9t-19.5 -6t-9.5 -18.5t6 -19.5l9 -10q6 -8 19 -29q13 -23 35 -68q22 -46 31 -68q10 -22 36 -82q15 -34 30 -64q-14 -19 -26 -36q-27 -40 -45 -65q-18 -27 -35 -57q-17 -29 -29 -50q-4 -8 -7 -12l-2 -1
q-11 -4 -15.5 -14t-1 -20.5z" />
</svg>
