<?xml version="1.0" standalone="no"?>
<!DOCTYPE svg PUBLIC "-//W3C//DTD SVG 1.1//EN" "http://www.w3.org/Graphics/SVG/1.1/DTD/svg11.dtd" >
<svg xmlns="http://www.w3.org/2000/svg" xmlns:xlink="http://www.w3.org/1999/xlink" version="1.1" viewBox="-10 0 577 1000">
   <path fill="currentColor"
d="M260.5 810q-10.5 -3 -16.5 -12.5t-3 -20.5l5 -18q4 -20 12 -44q7 -25 12 -40t20 -59q14 -41 29 -76l-5 -10q-3 -9 -9 -17q-6 -9 -16 -21q-9 -13 -15 -21t-26.5 -34.5t-40.5 -54t-44 -63t-33 -49.5q-8 -13 -23.5 -36t-28.5 -43t-17 -28l-4 -7q-6 -9 -3 -20t12.5 -16.5
t20.5 -2.5t16 12l4 7q4 7 17 26q13 20 28 42q15 23 23 37q9 13 32.5 48t43 61.5t39.5 52.5q21 27 27 35q6 9 16 21q7 11 13 19q9 -19 27 -64q20 -50 27 -69q8 -20 21 -61q14 -40 22 -63t11 -32q2 -8 5 -17l2 -9q3 -11 13 -16.5t20.5 -2.5t16 12.5t2.5 20.5l-2 9q-3 11 -6 20
t-10.5 32t-21.5 64t-22 61q-7 21 -27.5 71t-28.5 69q-9 18 -24 54q-16 35 -30 77q-15 43 -20 57q-4 15 -11 39q-8 24 -12 42l-5 18q-2 11 -12 17t-20.5 3z" />
</svg>
