<?xml version="1.0" standalone="no"?>
<!DOCTYPE svg PUBLIC "-//W3C//DTD SVG 1.1//EN" "http://www.w3.org/Graphics/SVG/1.1/DTD/svg11.dtd" >
<svg xmlns="http://www.w3.org/2000/svg" xmlns:xlink="http://www.w3.org/1999/xlink" version="1.1" viewBox="-10 0 640 1000">
   <path fill="currentColor"
d="M120 493q-1 -11 6.5 -20t18.5 -10h6q7 -1 28 -2q21 -2 33 -3q8 0 28 -2q0 -1 0.5 -2t1.5 -1q23 -39 49 -75q26 -35 47.5 -57.5t49.5 -46.5q24 -20 48 -39q-17 -1 -53 -4q-45 -3 -81 -2q-37 0 -55 1q-17 0 -52.5 1t-46.5 1t-28 -1h-17q-11 0 -19 -8.5t-7.5 -19.5
t8.5 -18.5t19 -7.5h17q18 1 27.5 1t44.5 -1t53 -1q17 -1 55 -1q38 -1 85 2q47 4 63 5q15 2 35 5q19 3 28 12q10 13 8.5 25t-8.5 19q-9 10 -37 31q-26 19 -52 41.5t-45 42.5t-43 52q-13 18 -26 37q6 -1 9 -2q7 0 15 -2l9 -2q11 -2 20.5 4.5t11.5 17t-4.5 20t-17.5 11.5l-9 2
q-10 2 -18 3q-6 1 -24 3q-13 2 -29 4q-14 23 -25 42q-17 28 -39 63.5t-31.5 52t-29.5 51.5q-18 32 -28 50l10 -2q29 -5 47 -8q17 -3 55 -8t90 -13q53 -8 73 -11q22 -3 57 -6q37 -4 58 -3q22 0 41 2q3 1 7 1t8 1l10 2q2 2 2.5 14.5t-2.5 26t-8 12.5q-7 -1 -24 -3
q-16 -2 -34.5 -2t-52.5 2q-34 3 -53 6q-21 3 -73 11q-54 9 -92 14q-37 4 -53 7t-47 8q-34 6 -51 4q-14 -1 -26 -14.5t-7 -30.5q4 -13 16 -33q10 -19 30 -54t30 -52q10 -16 32 -52q21 -36 39 -65l4 -6q-7 0 -22 1q-21 2 -27 3h-6q-11 1 -20 -6t-10 -18z" />
</svg>
