<?xml version="1.0" standalone="no"?>
<!DOCTYPE svg PUBLIC "-//W3C//DTD SVG 1.1//EN" "http://www.w3.org/Graphics/SVG/1.1/DTD/svg11.dtd" >
<svg xmlns="http://www.w3.org/2000/svg" xmlns:xlink="http://www.w3.org/1999/xlink" version="1.1" viewBox="-10 0 529 1000">
   <path fill="currentColor"
d="M288 756q4 -1 9 -2q7 -2 31 -17q23 -14 29.5 -22t20.5 -45q16 -39 20 -57q4 -19 9 -62t5 -65q1 -23 -1 -56q-1 -32 -9 -71q-8 -38 -14 -55q-5 -14 -28 -43t-32 -34q-10 -6 -32 -12q-20 -6 -35 -3.5t-36 15.5q-22 14 -31 23q-9 10 -30 49q-22 40 -28 58q-7 19 -16 62
q-9 44 -11 64q-3 20 -2 69q1 47 10 79q8 31 19 48.5t33 36.5q19 16 46 24q29 7 36 7l13 -1q14 -1 24 10zM206 793q-3 0 -5 -1q-39 -11 -68 -36q-27 -23 -42.5 -47.5t-25.5 -63.5q-11 -38 -12 -92q-1 -53 2 -76t13 -69q9 -46 17 -68q7 -22 31 -67q25 -45 38 -59
q14 -15 43 -33q31 -19 57 -23t57 5q29 8 45 17q17 11 46 47t37 59q7 20 16 63q8 43 10 79q2 35 1 59q0 25 -5.5 70.5t-9.5 67.5q-5 22 -22 65q-18 45 -30.5 60t-42.5 33q-29 19 -44 23q-13 4 -25 5q-14 2 -38 -1l-21 -2q-14 -1 -22 -15z" />
</svg>
